<?xml version="1.0"?>
<svg xmlns:rdf="http://www.w3.org/1999/02/22-rdf-syntax-ns#" xmlns="http://www.w3.org/2000/svg" xmlns:cc="http://creativecommons.org/ns#" xmlns:xlink="http://www.w3.org/1999/xlink" xmlns:dc="http://purl.org/dc/elements/1.1/" xmlns:svg="http://www.w3.org/2000/svg" id="svg97" viewBox="0 0 48 48">
  <defs id="defs3">
    <radialGradient id="radialGradient6719" xlink:href="#linearGradient5060" gradientUnits="userSpaceOnUse" cy="486.65" cx="605.71" gradientTransform="matrix(-2.7744 0 0 1.9697 112.76 -872.89)" r="117.14"/>
    <linearGradient id="linearGradient5060">
      <stop id="stop5062" offset="0"/>
      <stop id="stop5064" stop-opacity="0" offset="1"/>
    </linearGradient>
    <radialGradient id="radialGradient6717" xlink:href="#linearGradient5060" gradientUnits="userSpaceOnUse" cy="486.65" cx="605.71" gradientTransform="matrix(2.7744 0 0 1.9697 -1891.6 -872.89)" r="117.14"/>
    <linearGradient id="linearGradient6715" x1="302.86" gradientUnits="userSpaceOnUse" y1="366.65" gradientTransform="matrix(2.7744 0 0 1.9697 -1892.2 -872.89)" x2="302.86" y2="609.51">
      <stop id="stop5050" stop-opacity="0" offset="0"/>
      <stop id="stop5056" offset=".5"/>
      <stop id="stop5052" stop-opacity="0" offset="1"/>
    </linearGradient>
    <linearGradient id="linearGradient155" x1="19.116" gradientUnits="userSpaceOnUse" y1="28.946" gradientTransform="scale(1.4215 .70346)" x2="19.427" y2="51.913">
      <stop id="stop336" stop-color="#fff" offset="0"/>
      <stop id="stop337" stop-color="#fff" stop-opacity="0" offset="1"/>
    </linearGradient>
    <linearGradient id="linearGradient156" x1="14.899" gradientUnits="userSpaceOnUse" y1="27.06" gradientTransform="matrix(1.5353 0 0 .65134 3.4514 2.448)" x2="22.715" y2="41.837">
      <stop id="stop149" stop-color="#fff" stop-opacity=".13402" offset="0"/>
      <stop id="stop150" stop-color="#fff" stop-opacity=".051546" offset="1"/>
    </linearGradient>
    <linearGradient id="linearGradient158" x1="5.2658" gradientUnits="userSpaceOnUse" y1="18.726" gradientTransform="matrix(1.4627 0 .069079 .68367 -8.7075e-19 0)" x2="8.2122" y2="52.626">
      <stop id="stop138" stop-color="#fff" stop-opacity=".7006" offset="0"/>
      <stop id="stop139" stop-color="#fff" stop-opacity="0" offset="1"/>
    </linearGradient>
    <radialGradient id="radialGradient159" gradientUnits="userSpaceOnUse" cy="38.195" cx="26.107" gradientTransform="matrix(1.0156 0 .10310 1.0005 -6.7386e-18 -.083695)" r="32.26">
      <stop id="stop1790" stop-color="#a0a0a0" offset="0"/>
      <stop id="stop1791" stop-color="#a8a8a8" offset="1"/>
    </radialGradient>
    <linearGradient id="linearGradient13162" x1="22.176" gradientUnits="userSpaceOnUse" y1="36.988" gradientTransform="matrix(1 0 0 1.0221 52.057 -1.323)" x2="22.065" y2="32.05">
      <stop id="stop9768" stop-color="#6194cb" offset="0"/>
      <stop id="stop9770" stop-color="#729fcf" offset="1"/>
    </linearGradient>
    <linearGradient id="linearGradient13848" y2="14.875" gradientUnits="userSpaceOnUse" y1="37.625" x2="19.75" x1="22.25">
      <stop id="stop13844" offset="0"/>
      <stop id="stop13846" stop-opacity="0" offset="1"/>
    </linearGradient>
  </defs>
  <g id="layer3">
    <g id="g6707" transform="matrix(.022624 0 0 .020868 43.383 36.37)">
      <rect id="rect6709" opacity=".40206" style="color:black" height="478.36" width="1339.6" y="-150.7" x="-1559.3" fill="url(#linearGradient6715)"/>
      <path id="path6711" opacity=".40206" style="color:black" fill="url(#radialGradient6717)" d="m-219.62-150.68v478.33c142.88 0.9 345.4-107.17 345.4-239.2 0-132.02-159.44-239.13-345.4-239.13z"/>
      <path id="path6713" opacity=".40206" style="color:black" fill="url(#radialGradient6719)" d="m-1559.3-150.68v478.33c-142.8 0.9-345.4-107.17-345.4-239.2 0-132.02 159.5-239.13 345.4-239.13z"/>
    </g>
    <path id="path2375" stroke-linejoin="round" style="color:#000000" d="m4.62 38.651c0.0418 0.42 0.4974 0.841 0.9112 0.841h31.136c0.414 0 0.786-0.421 0.744-0.841l-2.696-27.119c-0.042-0.421-0.498-0.841-0.912-0.841h-12.723c-0.59 0-1.209-0.38-1.403-0.9605l-1.103-3.3059c-0.169-0.5073-0.547-0.7358-1.314-0.7358h-14.938c-0.4134 0-0.7853 0.4205-0.7435 0.8409l3.0415 32.121z" transform="matrix(1.0045 0 0 1.0058 -.082344 -.22196)" stroke="#5a5a5a" stroke-linecap="round" stroke-width=".99487" fill="url(#radialGradient159)"/>
    <path id="path13160" opacity=".11364" stroke-linejoin="round" style="color:#000000" d="m5.3302 37.533h29.988" stroke="#000" stroke-linecap="round" fill="#729fcf"/>
    <path id="path13139" opacity=".11364" stroke-linejoin="round" style="color:#000000" d="m5.3302 35.533h29.988" stroke="#000" stroke-linecap="round" fill="#729fcf"/>
    <path id="path2380" style="color:#000000" d="m6.1718 38.419c0.0313 0.31-0.1547 0.517-0.4755 0.413-0.3207-0.103-0.5485-0.31-0.5799-0.62l-3.0295-31.367c-0.0314-0.3107 0.1566-0.4981 0.4669-0.4981l14.75-0.0915c0.531-0.0033 0.739 0.0533 0.879 0.5172 0 0 1.086 3.1128 1.247 3.6984l-1.556-2.9173c-0.265-0.4973-0.599-0.4138-0.973-0.4138h-13.129c-0.3105 0-0.4965 0.2069-0.4652 0.5172l2.9788 30.865-0.1138-0.103z" transform="matrix(1.0089 0 0 1.0121 -.10194 -.33126)" display="block" fill="url(#linearGradient158)"/>
    <path id="path13113" opacity=".11364" stroke-linejoin="round" style="color:#000000" d="m3.3386 17.533h31.149" stroke="#000" stroke-linecap="round" fill="#729fcf"/>
    <path id="path13115" opacity=".11364" stroke-linejoin="round" style="color:#000000" d="m2.7573 11.533h30.739" stroke="#000" stroke-linecap="round" fill="#729fcf"/>
    <g id="g2381" fill-opacity=".58031" transform="matrix(1.0345 0 .10453 1.0352 -9.9221 2.3952)" stroke="#000" display="block" fill="#fff">
      <path id="path2382" d="m41.786 9.0364c0.009-0.4746 0.015-0.7245-0.424-0.7242l-12.555 0.0086c-0.3 0-0.325-0.1432 0 0 0.324 0.1432 1.247 0.6583 2.182 0.701 0 0 10.797 0.0165 10.797 0.0146z"/>
    </g>
    <path id="path13121" opacity=".11364" stroke-linejoin="round" style="color:#000000" d="m5.1595 33.533h29.988" stroke="#000" stroke-linecap="round" fill="#729fcf"/>
    <path id="path13119" opacity=".11364" stroke-linejoin="round" style="color:#000000" d="m4.8658 31.533h30.109" stroke="#000" stroke-linecap="round" fill="#729fcf"/>
    <path id="path13135" opacity=".11364" stroke-linejoin="round" style="color:#000000" d="m4.6336 29.533h30.169" stroke="#000" stroke-linecap="round" fill="#729fcf"/>
    <path id="path13137" opacity=".11364" stroke-linejoin="round" style="color:#000000" d="m4.463 27.533h30.169" stroke="#000" stroke-linecap="round" fill="#729fcf"/>
    <path id="path13143" opacity=".11364" stroke-linejoin="round" style="color:#000000" d="m4.2557 25.533h30.205" stroke="#000" stroke-linecap="round" fill="#729fcf"/>
    <path id="path13133" opacity=".11364" stroke-linejoin="round" style="color:#000000" d="m4.0235 23.533h30.266" stroke="#000" stroke-linecap="round" fill="#729fcf"/>
    <path id="path13117" opacity=".11364" stroke-linejoin="round" style="color:#000000" d="m3.8528 21.533h30.265" stroke="#000" stroke-linecap="round" fill="#729fcf"/>
    <path id="path13125" opacity=".11364" stroke-linejoin="round" style="color:#000000" d="m3.6514 19.533h30.296" stroke="#000" stroke-linecap="round" fill="#729fcf"/>
    <path id="path13840" opacity=".39205" style="color:#000000" d="m34.375 14.125l2.625 24.625-31 0.125-1.875-24.75h30.25z" display="block" fill="url(#linearGradient13848)"/>
    <path id="path2401" stroke-linejoin="round" style="color:#000000" d="m5.7786 39.066c0.1034 0.211 0.3103 0.423 0.6206 0.423h33.309c0.207 0 0.521-0.126 0.708-0.264 0.53-0.392 0.655-0.613 0.893-0.974 2.448-3.715 5.805-19.277 5.805-19.277 0.103-0.211-0.104-0.423-0.414-0.423h-34.924c-0.31 0-1.656 16.108-4.8626 19.287l-1.2383 1.228h0.1035z" transform="matrix(.98877 0 0 1.003 -.11141 -.10656)" display="block" stroke="#3465a4" stroke-width="1.0042" fill="url(#linearGradient13162)"/>
    <path id="path323" d="m13.134 20.139c-0.772 4.99-1.501 9.009-2.716 13.514 2.387-0.708 7.117-3.205 17.117-3.205s16.723-9.249 17.651-10.354l-32.052 0.045z" transform="matrix(.98877 0 0 1.003 -.11141 -.10656)" fill="url(#linearGradient156)" fill-rule="evenodd"/>
    <path id="path324" opacity=".52273" style="color:#000000" d="m45.82 19.688h-33.158s-2.148 16.019-4.7227 18.24c8.1207 0 31.572-0.049 31.591-0.049 1.752 0 4.908-12.636 6.29-18.191z" transform="matrix(.98877 0 0 1.003 -.11141 -.10656)" stroke="url(#linearGradient155)" stroke-linecap="round" stroke-width="1.0042px" fill="none"/>
    <path id="path13123" opacity=".11364" stroke-linejoin="round" style="color:#000000" d="m3.1629 15.533h30.83" stroke="#000" stroke-linecap="round" fill="#729fcf"/>
    <path id="path13127" opacity=".11364" stroke-linejoin="round" style="color:#000000" d="m2.9642 13.533h31.027" stroke="#000" stroke-linecap="round" fill="#729fcf"/>
    <path id="path13145" opacity=".11364" stroke-linejoin="round" style="color:#000000" d="m2.3052 7.5335h14.784" stroke="#000" stroke-linecap="round" fill="#729fcf"/>
    <path id="path13147" opacity=".11364" stroke-linejoin="round" style="color:#000000" d="m2.5243 9.5335h15.281" stroke="#000" stroke-linecap="round" fill="#729fcf"/>
  </g>
  <metadata>
    <rdf:RDF>
      <cc:Work>
        <dc:format>image/svg+xml</dc:format>
        <dc:type rdf:resource="http://purl.org/dc/dcmitype/StillImage"/>
        <cc:license rdf:resource="http://creativecommons.org/licenses/publicdomain/"/>
        <dc:publisher>
          <cc:Agent rdf:about="http://openclipart.org/">
            <dc:title>Openclipart</dc:title>
          </cc:Agent>
        </dc:publisher>
        <dc:title>tango folder open</dc:title>
        <dc:date>2010-04-03T15:25:49</dc:date>
        <dc:description>An icon from Tango Project. Since version 0.8.90 Tango Project icons are Public Domain.</dc:description>
        <dc:source>http://openclipart.org/detail/36655/tango-folder-open-by-warszawianka</dc:source>
        <dc:creator>
          <cc:Agent>
            <dc:title>warszawianka</dc:title>
          </cc:Agent>
        </dc:creator>
        <dc:subject>
          <rdf:Bag>
            <rdf:li>clip art</rdf:li>
            <rdf:li>clipart</rdf:li>
            <rdf:li>directory</rdf:li>
            <rdf:li>externalsource</rdf:li>
            <rdf:li>folder</rdf:li>
            <rdf:li>icon</rdf:li>
            <rdf:li>tango</rdf:li>
          </rdf:Bag>
        </dc:subject>
      </cc:Work>
      <cc:License rdf:about="http://creativecommons.org/licenses/publicdomain/">
        <cc:permits rdf:resource="http://creativecommons.org/ns#Reproduction"/>
        <cc:permits rdf:resource="http://creativecommons.org/ns#Distribution"/>
        <cc:permits rdf:resource="http://creativecommons.org/ns#DerivativeWorks"/>
      </cc:License>
    </rdf:RDF>
  </metadata>
</svg>
